Coordinates
version=1
nRows=24
nColumns=24
inDegrees=yes

Units are S.I. units (second, meters, Newtons, ...)
Angles are in degrees.

endheader
time	pelvis_tilt	pelvis_list	pelvis_rotation	pelvis_tx	pelvis_ty	pelvis_tz	hip_flexion_r	hip_adduction_r	hip_rotation_r	knee_angle_r	ankle_angle_r	subtalar_angle_r	mtp_angle_r	hip_flexion_l	hip_adduction_l	hip_rotation_l	knee_angle_l	ankle_angle_l	subtalar_angle_l	mtp_angle_l	lumbar_extension	lumbar_bending	lumbar_rotation
      1.07883333	      0.56185021	      4.43158291	     -0.38849107	      0.51251981	      1.02172962	      0.27409231	      7.70893864	      0.86954053	      4.37755059	    -15.76756483	      7.58662558	    -11.20204947	     -1.42960334	     14.02743513	      3.54904987	     -6.33655870	    -63.49363505	      2.45584448	    -12.24094513	      1.93288638	     -0.32778320	     -3.28395670	      5.06477127
      1.08300000	      0.57540049	      4.46820049	     -0.74891811	      0.51718081	      1.02212468	      0.27469168	      7.30526382	      0.84555089	      4.57378949	    -15.49104359	      7.66813210	    -10.99928514	     -1.37720892	     14.48311988	      3.52352278	     -6.63160368	    -63.07008556	      2.62348647	    -12.19560545	      1.93702151	     -0.33196190	     -3.31357454	      5.23571813
      1.08716667	      0.64417008	      4.51518227	     -1.09603312	      0.52182061	      1.02258623	      0.27527295	      6.83676633	      0.80206518	      4.75373528	    -15.20642726	      7.80053787	    -10.80197772	     -1.28284689	     14.86645852	      3.51271836	     -6.90633776	    -62.60399468	      2.79421907	    -12.12577975	      1.94126140	     -0.39877823	     -3.36150590	      5.59437048
      1.09133333	      0.64319901	      4.55167608	     -1.44220117	      0.52642904	      1.02290643	      0.27584802	      6.45528179	      0.77023777	      4.95184598	    -14.93882361	      7.87487954	    -10.61208617	     -1.24428753	     15.32637853	      3.48704721	     -7.17960263	    -62.12673536	      2.92653142	    -12.12757772	      1.94183224	     -0.39016472	     -3.40139315	      5.69250333
      1.09550000	      0.69289192	      4.58079042	     -1.78771969	      0.53104623	      1.02327327	      0.27642926	      6.01780622	      0.74043771	      5.13459888	    -14.67443072	      8.00963922	    -10.43434039	     -1.14815490	     15.71519610	      3.44331914	     -7.45943930	    -61.61489533	      3.07388896	    -12.07843663	      1.94034423	     -0.42739775	     -3.43348566	      6.07024314
      1.09966667	      0.70183855	      4.62301198	     -2.13798188	      0.53564112	      1.02355643	      0.27700560	      5.63940611	      0.69450017	      5.33081096	    -14.43483485	      8.10442516	    -10.25658518	     -1.08871321	     16.14053544	      3.40876668	     -7.74981753	    -61.07091308	      3.17783747	    -12.08733487	      1.93661372	     -0.41693639	     -3.47940761	      6.22065147
      1.10383333	      0.71373820	      4.64721542	     -2.46599780	      0.54020072	      1.02381609	      0.27755493	      5.24526611	      0.66441637	      5.53633039	    -14.16939662	      8.19565206	    -10.06869913	     -1.04676302	     16.56287477	      3.36262425	     -7.99913432	    -60.51947142	      3.28314336	    -12.10071768	      1.93283184	     -0.43654384	     -3.51399955	      6.36151447
      1.10800000	      0.74933758	      4.67100174	     -2.78616396	      0.54477582	      1.02408822	      0.27808166	      4.82886665	      0.62706240	      5.71534061	    -13.91820344	      8.32536936	     -9.90854061	     -0.95757696	     16.94266751	      3.31477654	     -8.24292106	    -59.92901979	      3.38128896	    -12.09102674	      1.92129023	     -0.46197937	     -3.53806281	      6.71293500
      1.11216667	      0.74548681	      4.69077998	     -3.09618181	      0.54932054	      1.02427561	      0.27859708	      4.45750560	      0.59409632	      5.90999672	    -13.66749448	      8.40503455	     -9.73617403	     -0.92765713	     17.36422090	      3.25986097	     -8.47683288	    -59.32638032	      3.46110760	    -12.11144654	      1.91597891	     -0.45695988	     -3.56971045	      6.77316473
      1.11633333	      0.78382848	      4.72139547	     -3.42068677	      0.55386909	      1.02450159	      0.27911232	      4.05239688	      0.54117347	      6.09405499	    -13.44210122	      8.53915188	     -9.56674380	     -0.84590883	     17.71934899	      3.21694914	     -8.71944534	    -58.67661563	      3.52262615	    -12.12184049	      1.89789587	     -0.48718334	     -3.60015871	      7.09258606
      1.12050000	      0.76618867	      4.72170421	     -3.71380105	      0.55839198	      1.02460538	      0.27958966	      3.69699843	      0.52245413	      6.28431217	    -13.19660377	      8.62048139	     -9.40102535	     -0.81998745	     18.14210911	      3.13917838	     -8.93019553	    -58.04038493	      3.58947283	    -12.13314664	      1.89086964	     -0.46944170	     -3.60966824	      7.14362157
      1.12466667	      0.81243502	      4.75024425	     -4.02804323	      0.56291918	      1.02480610	      0.28007754	      3.28628392	      0.46333324	      6.46998652	    -12.97672489	      8.74978065	     -9.24438156	     -0.75347663	     18.46821441	      3.09695183	     -9.15172131	    -57.33788735	      3.62556828	    -12.13782350	      1.86860133	     -0.51329021	     -3.64040933	      7.42689009
      1.12883333	      0.79929487	      4.76048385	     -4.32826248	      0.56743073	      1.02487242	      0.28054873	      2.94083995	      0.42602543	      6.66244646	    -12.75883716	      8.83408476	     -9.07809330	     -0.72329205	     18.86026722	      3.02721562	     -9.36136034	    -56.64119298	      3.66376963	    -12.13468113	      1.85672631	     -0.49652701	     -3.65423290	      7.50383260
      1.13300000	      0.80873736	      4.76268330	     -4.62108156	      0.57192359	      1.02495441	      0.28098974	      2.57342382	      0.39176839	      6.84712486	    -12.54784062	      8.93947975	     -8.92462189	     -0.68892897	     19.21703240	      2.95527084	     -9.55563279	    -55.91745552	      3.69232862	    -12.12591680	      1.84081654	     -0.50673965	     -3.65650458	      7.65767332
      1.13716667	      0.81601444	      4.77627034	     -4.90502551	      0.57642211	      1.02501784	      0.28141938	      2.20782851	      0.34098740	      7.02370911	    -12.33534019	      9.04761924	     -8.76359826	     -0.65781230	     19.56359308	      2.90081608	     -9.73151662	    -55.16408085	      3.70851943	    -12.11242089	      1.82401901	     -0.51673401	     -3.67913213	      7.80591844
      1.14133333	      0.81846379	      4.77821206	     -5.18210864	      0.58090619	      1.02503977	      0.28182395	      1.85046993	      0.29941910	      7.19666591	    -12.13014744	      9.15672154	     -8.60491130	     -0.63000661	     19.90903612	      2.83517059	     -9.89320527	    -54.39842842	      3.72202897	    -12.09188542	      1.80703284	     -0.52343771	     -3.68432349	      7.94334458
      1.14550000	      0.82379388	      4.78339079	     -5.45652756	      0.58539625	      1.02504865	      0.28222704	      1.49145565	      0.25139274	      7.36699568	    -11.92845001	      9.26747901	     -8.44427716	     -0.60481368	     20.23846888	      2.77445802	    -10.04632485	    -53.60711542	      3.72599927	    -12.06222416	      1.78948386	     -0.53311034	     -3.69776377	      8.07834138
      1.14966667	      0.78964477	      4.77186944	     -5.69978523	      0.58987526	      1.02495774	      0.28257815	      1.16452596	      0.22211423	      7.52487410	    -11.70952648	      9.38120806	     -8.29008662	     -0.58983695	     20.61319616	      2.69972843	    -10.16435503	    -52.82279134	      3.73869072	    -12.02580362	      1.77868557	     -0.50834706	     -3.69713867	      8.15314370
      1.15383333	      0.80996096	      4.79426219	     -5.99213387	      0.59433559	      1.02494423	      0.28296972	      0.82284372	      0.14684178	      7.68719832	    -11.56754662	      9.50903950	     -8.12426889	     -0.56714252	     20.89820006	      2.65979688	    -10.31945900	    -51.96737450	      3.71247421	    -11.97862786	      1.75839213	     -0.53138383	     -3.71956479	      8.32960755
      1.15800000	      0.79899436	      4.79159557	     -6.25075315	      0.59879254	      1.02485275	      0.28332185	      0.49457934	      0.09980961	      7.83984592	    -11.38888597	      9.63022766	     -7.95464850	     -0.54884752	     21.21870311	      2.59634472	    -10.43630901	    -51.12196292	      3.69906251	    -11.92277834	      1.74154646	     -0.52733753	     -3.72462979	      8.44754178
      1.16216667	      0.79536954	      4.78215377	     -6.50551431	      0.60323635	      1.02472896	      0.28365893	      0.16482858	      0.05699133	      7.98326874	    -11.22467382	      9.76435396	     -7.79033898	     -0.53123986	     21.52325895	      2.52755503	    -10.54351494	    -50.26524777	      3.68645708	    -11.85078080	      1.72432185	     -0.53682389	     -3.71988392	      8.56805978
      1.16633333	      0.80693868	      4.78046999	     -6.75440964	      0.60768579	      1.02463054	      0.28396547	     -0.17865400	     -0.00192246	      8.10546739	    -11.06323413	      9.92982099	     -7.60553649	     -0.50600769	     21.79651531	      2.47880874	    -10.63050774	    -49.37534524	      3.66333474	    -11.78509171	      1.69713423	     -0.56614998	     -3.72721536	      8.74725940
      1.17050000	      0.77188906	      4.77561655	     -7.00626364	      0.61213684	      1.02442668	      0.28429178	     -0.46289283	     -0.04951707	      8.24946146	    -10.91905330	     10.04494529	     -7.45635376	     -0.49253385	     22.11245529	      2.41195521	    -10.72394761	    -48.47819767	      3.63122125	    -11.68944477	      1.68356257	     -0.53611919	     -3.72485934	      8.79901248
      1.17466667	      0.76051631	      4.77300900	     -7.25569883	      0.61657588	      1.02423369	      0.28459955	     -0.76634521	     -0.10589784	      8.37711451	    -10.78570449	     10.19489774	     -7.29581451	     -0.47771919	     22.39031430	      2.35495660	    -10.80701931	    -47.55623565	      3.59328363	    -11.58592370	      1.66964795	     -0.53708688	     -3.73141993	      8.89301075
